<?xml version="1.0" standalone="no"?>
<!DOCTYPE svg PUBLIC "-//W3C//DTD SVG 20010904//EN"
 "http://www.w3.org/TR/2001/REC-SVG-20010904/DTD/svg10.dtd">
<svg version="1.0" xmlns="http://www.w3.org/2000/svg"
 width="600.000000pt" height="600.000000pt" viewBox="0 0 600.000000 600.000000"
 preserveAspectRatio="xMidYMid meet">
<metadata>
Created by potrace 1.11, written by Peter Selinger 2001-2013
</metadata>
<g transform="translate(0.000000,600.000000) scale(0.100000,-0.100000)"
fill="#000000" stroke="none">
<path d="M2696 5933 c-22 -7 -62 -18 -90 -22 -29 -5 -39 -9 -24 -10 40 -2 123
18 144 34 22 17 21 17 -30 -2z"/>
<path d="M5026 5923 c-6 -14 -5 -15 5 -6 7 7 10 15 7 18 -3 3 -9 -2 -12 -12z"/>
<path d="M2488 5913 c12 -2 30 -2 40 0 9 3 -1 5 -23 4 -22 0 -30 -2 -17 -4z"/>
<path d="M2381 5884 c0 -11 3 -14 6 -6 3 7 2 16 -1 19 -3 4 -6 -2 -5 -13z"/>
<path d="M3508 5839 c-17 -7 -32 -24 -42 -49 -8 -21 -27 -50 -41 -64 -14 -14
-25 -31 -25 -39 0 -13 -40 -57 -52 -57 -4 0 -20 -12 -36 -27 -16 -16 -48 -41
-71 -57 l-42 -28 6 -52 c6 -42 3 -63 -15 -105 l-23 -51 27 -41 c26 -38 26 -42
15 -99 -6 -32 -8 -76 -5 -97 26 -149 40 -430 29 -578 -5 -61 -5 -133 0 -161 7
-44 5 -56 -18 -97 -15 -26 -31 -48 -36 -48 -13 -2 -22 -5 -39 -12 -8 -4 -28
-9 -45 -11 -16 -2 -84 -16 -150 -31 -66 -14 -156 -34 -200 -43 -100 -22 -161
-18 -177 12 -11 20 -15 69 -18 200 -1 77 -28 396 -38 462 -9 60 -39 90 -161
166 -85 54 -135 73 -236 88 -38 6 -95 18 -125 26 -32 9 -121 18 -217 21 -134
5 -170 3 -212 -11 -27 -9 -63 -16 -78 -16 -39 0 -257 -44 -368 -74 -176 -49
-249 -59 -317 -47 -70 12 -111 5 -188 -34 -25 -12 -67 -25 -94 -29 -27 -3 -55
-11 -62 -17 -15 -12 -5 -54 27 -105 l22 -35 -34 -37 -34 -36 36 26 36 27 11
-25 c7 -13 16 -24 21 -24 10 0 60 -96 94 -180 32 -76 138 -167 204 -174 15 -2
42 3 60 10 18 8 50 14 72 14 34 0 41 4 55 34 9 19 19 56 22 83 4 26 12 59 19
73 7 14 10 30 8 36 -2 6 15 23 37 38 22 14 40 33 40 40 0 8 16 38 36 67 19 29
42 68 49 86 8 18 19 33 26 33 6 0 47 18 90 40 162 82 244 105 375 102 51 -1
97 4 124 13 23 8 54 15 69 15 37 0 128 -55 145 -88 22 -43 55 -303 56 -443 0
-70 4 -140 9 -155 4 -16 5 -97 2 -181 -5 -136 -8 -154 -26 -167 -11 -9 -69
-32 -130 -51 -104 -34 -282 -114 -315 -141 -8 -7 -62 -37 -120 -66 -125 -64
-290 -160 -341 -197 -20 -14 -91 -79 -158 -143 -205 -196 -224 -265 -157 -569
32 -144 143 -279 279 -339 l73 -32 155 6 c161 5 199 9 215 18 5 3 44 18 88 32
43 15 93 38 111 52 18 13 59 38 91 54 76 37 100 59 164 150 29 41 63 87 76
101 40 42 213 396 244 498 16 52 43 114 60 138 18 24 36 59 41 78 8 28 15 35
37 36 24 2 25 2 4 6 -22 4 -23 7 -20 98 3 80 5 92 17 82 8 -7 5 2 -8 19 -37
51 -23 75 67 117 92 42 399 142 462 151 31 4 62 0 99 -12 46 -16 57 -24 67
-53 17 -46 18 -271 2 -287 -9 -9 -9 -12 0 -12 9 0 12 -29 12 -99 0 -55 4 -102
9 -105 16 -10 20 -91 11 -210 -6 -80 -5 -126 2 -144 15 -38 18 -64 19 -168 0
-51 -3 -100 -8 -110 -6 -11 -7 -45 -4 -77 5 -51 10 -60 37 -78 l32 -20 6 26
c4 14 17 30 29 34 18 7 24 4 34 -22 18 -41 17 -78 -2 -71 -8 3 -39 -6 -69 -20
-30 -14 -60 -26 -67 -26 -7 0 -9 -11 -5 -33 3 -17 9 -59 12 -92 7 -64 23 -91
64 -107 l25 -9 -22 -17 c-27 -21 -39 -85 -24 -126 11 -28 12 -28 31 -11 16 15
20 31 20 89 0 39 -4 77 -9 85 -7 10 -2 30 15 63 23 45 23 50 9 84 -21 51 -20
54 20 54 28 0 35 4 35 20 0 11 4 20 8 20 16 0 34 -147 38 -326 3 -103 10 -196
15 -206 6 -10 9 -42 8 -71 -1 -29 1 -67 5 -85 8 -34 -1 -41 -24 -20 -18 17 17
-41 42 -68 17 -19 17 -22 3 -34 -19 -16 -20 -66 0 -74 8 -3 15 -17 15 -31 0
-16 -6 -25 -15 -25 -12 0 -15 -13 -15 -57 0 -32 -3 -69 -6 -83 -5 -20 -3 -22
5 -10 10 13 12 13 20 0 16 -24 32 35 25 91 -4 26 -3 74 1 106 6 52 8 56 21 38
8 -10 15 -30 15 -44 1 -21 3 -22 6 -5 2 11 -6 42 -18 70 -19 42 -24 72 -28
204 -7 224 -6 645 3 863 7 160 10 187 24 187 12 0 10 6 -9 26 l-24 26 30 -4
c28 -3 30 -1 33 34 3 31 -2 42 -25 62 l-28 24 28 7 c27 7 27 8 23 69 -3 33 -8
90 -11 126 -5 44 -2 92 9 147 12 65 13 94 5 140 -13 68 -8 113 20 212 12 42
21 104 21 140 0 51 6 77 26 117 l26 51 150 43 c82 23 166 44 185 46 20 3 39 7
43 9 21 13 144 23 168 14 49 -19 111 -26 149 -19 63 13 182 68 226 104 24 19
68 41 102 51 99 28 124 66 86 129 -10 17 -24 49 -31 71 -7 22 -28 58 -45 80
-18 22 -36 50 -39 63 -4 12 -11 22 -16 22 -5 0 -7 6 -4 14 3 8 1 17 -5 21 -19
11 -12 25 12 25 12 0 29 5 37 11 11 7 6 8 -20 4 -19 -4 -39 -8 -44 -9 -5 0
-30 33 -55 75 -41 67 -52 78 -95 95 -38 15 -72 44 -162 141 -63 67 -139 138
-169 158 -34 22 -57 46 -61 61 -4 14 -18 31 -33 38 -14 8 -37 26 -50 40 -14
14 -28 26 -32 26 -17 0 -137 76 -176 112 -24 21 -46 38 -50 38 -12 0 -105 90
-136 131 -15 20 -27 43 -27 52 0 19 -47 22 -92 6z m274 -563 c19 -8 46 -32 61
-53 14 -21 51 -67 82 -103 30 -36 64 -85 76 -110 11 -25 38 -81 59 -125 59
-124 92 -237 94 -319 2 -118 -23 -145 -175 -192 -100 -31 -298 -76 -313 -71
-6 2 -11 20 -13 41 -1 21 -8 45 -15 54 -10 12 -10 14 0 8 8 -5 12 1 13 21 0
15 4 37 8 48 5 11 5 27 1 35 -5 9 -2 88 7 175 8 88 12 192 10 230 -8 110 19
308 48 351 18 28 14 28 57 10z m-1674 -1691 c6 -98 -31 -330 -67 -426 -12 -30
-21 -63 -21 -73 0 -23 -120 -256 -158 -306 -84 -112 -210 -209 -342 -265 -85
-36 -160 -42 -236 -21 -53 15 -68 27 -147 107 -48 50 -94 107 -102 126 -25 59
-20 171 11 240 31 71 84 117 215 185 52 27 110 60 129 72 19 13 77 47 128 76
52 29 112 67 135 84 75 56 181 130 217 152 19 12 69 42 110 68 47 29 84 45
100 44 23 -3 25 -7 28 -63z m1482 -490 c0 -9 -9 -15 -22 -15 -22 1 -23 1 -4
15 25 19 26 19 26 0z"/>
<path d="M4996 5833 c-6 -14 -5 -15 5 -6 7 7 10 15 7 18 -3 3 -9 -2 -12 -12z"/>
<path d="M3344 5785 c3 -8 0 -15 -6 -15 -6 0 -9 -2 -6 -5 7 -7 38 5 38 15 0 4
-7 11 -16 14 -12 4 -15 2 -10 -9z"/>
<path d="M541 5628 c-13 -20 -12 -22 1 -11 8 7 18 10 22 6 4 -4 4 0 0 10 -8
21 -6 21 -23 -5z"/>
<path d="M4811 5538 l-22 -33 24 27 c14 15 28 24 33 20 4 -4 4 -1 0 6 -10 16
-9 17 -35 -20z"/>
<path d="M4696 5387 c3 -10 9 -15 12 -12 3 3 0 11 -7 18 -10 9 -11 8 -5 -6z"/>
<path d="M5150 5099 c-8 -4 -42 -23 -75 -42 -33 -19 -86 -42 -118 -52 -32 -9
-56 -19 -54 -21 8 -8 106 27 180 66 90 46 104 48 110 18 4 -16 5 -14 4 6 -2
30 -20 40 -47 25z"/>
<path d="M1299 5080 c-13 -10 -19 -19 -13 -20 6 0 19 9 29 20 23 26 14 26 -16
0z"/>
<path d="M754 5035 c-9 -14 -15 -27 -13 -30 3 -2 12 10 21 26 21 36 15 39 -8
4z"/>
<path d="M5516 4762 c-4 -71 -15 -185 -25 -253 -16 -115 -18 -209 -2 -209 3 0
4 23 2 52 -2 28 4 108 13 177 22 167 35 344 26 354 -4 4 -10 -50 -14 -121z"/>
<path d="M1535 4570 c-10 -11 -16 -22 -14 -24 2 -2 12 7 22 20 22 29 17 32 -8
4z"/>
<path d="M5960 4460 c-18 -12 -2 -12 25 0 13 6 15 9 5 9 -8 0 -22 -4 -30 -9z"/>
<path d="M3111 4218 l-22 -33 24 27 c14 15 28 24 33 20 4 -4 4 -1 0 6 -10 16
-9 17 -35 -20z"/>
<path d="M5483 4165 c0 -22 2 -30 4 -17 2 12 2 30 0 40 -3 9 -5 -1 -4 -23z"/>
<path d="M4860 4122 c0 -4 16 -6 35 -4 19 2 35 6 35 8 0 2 -16 4 -35 4 -19 0
-35 -4 -35 -8z"/>
<path d="M4948 4123 c7 -3 16 -2 19 1 4 3 -2 6 -13 5 -11 0 -14 -3 -6 -6z"/>
<path d="M4798 4113 c-10 -2 -18 -8 -18 -13 0 -8 57 6 69 16 6 5 -29 3 -51 -3z"/>
<path d="M4695 4080 c3 -5 11 -10 16 -10 6 0 7 5 4 10 -3 6 -11 10 -16 10 -6
0 -7 -4 -4 -10z"/>
<path d="M4760 4056 c0 -2 7 -7 16 -10 8 -3 12 -2 9 4 -6 10 -25 14 -25 6z"/>
<path d="M5491 4004 c0 -11 3 -14 6 -6 3 7 2 16 -1 19 -3 4 -6 -2 -5 -13z"/>
<path d="M3835 3940 c-3 -5 -1 -10 4 -10 6 0 11 5 11 10 0 6 -2 10 -4 10 -3 0
-8 -4 -11 -10z"/>
<path d="M5510 3910 c0 -8 -2 -33 -5 -55 l-5 -40 15 45 c10 29 12 47 5 54 -7
7 -10 5 -10 -4z"/>
<path d="M1503 3733 c9 -2 23 -2 30 0 6 3 -1 5 -18 5 -16 0 -22 -2 -12 -5z"/>
<path d="M1408 3723 c-16 -2 -28 -9 -28 -15 0 -6 9 -8 23 -3 12 3 36 10 52 15
27 7 27 8 5 7 -14 0 -37 -2 -52 -4z"/>
<path d="M1290 3692 c0 -6 9 -12 20 -15 11 -3 20 -3 20 -1 0 2 -9 8 -20 14
-11 6 -20 7 -20 2z"/>
<path d="M279 3663 l-24 -28 28 24 c25 23 32 31 24 31 -2 0 -14 -12 -28 -27z"/>
<path d="M3831 3614 c0 -11 3 -14 6 -6 3 7 2 16 -1 19 -3 4 -6 -2 -5 -13z"/>
<path d="M1076 3597 c3 -10 9 -15 12 -12 3 3 0 11 -7 18 -10 9 -11 8 -5 -6z"/>
<path d="M2665 3565 c-22 -8 -56 -14 -75 -15 -21 -2 -27 -4 -16 -7 23 -6 134
16 142 28 7 11 -1 10 -51 -6z"/>
<path d="M2981 3554 c-54 -17 -53 -16 -42 -45 l10 -24 0 26 c1 22 7 28 36 33
19 4 37 11 40 16 4 6 5 10 3 9 -2 -1 -23 -7 -47 -15z"/>
<path d="M3820 3502 c0 -32 -5 -107 -11 -165 -6 -59 -9 -113 -6 -120 3 -10 13
83 31 301 2 23 0 42 -5 42 -5 0 -9 -26 -9 -58z"/>
<path d="M3786 3154 c-8 -64 -8 -162 2 -167 4 -3 7 44 8 104 0 60 0 109 -1
109 -1 0 -5 -21 -9 -46z"/>
<path d="M4238 3093 c23 -2 42 -9 42 -15 0 -30 -46 -160 -79 -223 -21 -40 -41
-84 -45 -99 -3 -14 -11 -26 -16 -26 -8 0 -14 -21 -24 -95 -4 -36 -48 -168 -58
-175 -4 -3 -3 -12 2 -20 6 -8 10 -26 11 -40 2 -24 2 -24 6 -2 3 14 11 22 21
20 13 -2 16 3 14 20 -2 13 7 53 19 90 12 37 25 85 29 107 5 22 21 69 36 105
15 36 27 73 26 83 0 9 3 15 7 13 10 -7 48 73 57 119 5 27 17 44 47 66 43 31
43 38 -2 14 -34 -17 -41 -12 -41 32 l0 33 -47 -2 -48 -1 43 -4z"/>
<path d="M4090 3070 c-11 -7 -5 -8 20 -4 43 8 51 14 19 14 -13 0 -31 -5 -39
-10z"/>
<path d="M219 2943 c10 -20 5 -30 -56 -95 l-67 -73 63 60 c79 76 88 92 66 114
-16 15 -17 15 -6 -6z"/>
<path d="M380 2881 c0 -7 -6 -11 -15 -7 -9 3 -15 0 -15 -10 0 -8 4 -13 9 -10
5 4 11 1 13 -5 2 -7 8 -7 15 3 8 9 9 19 3 28 -8 12 -10 12 -10 1z"/>
<path d="M3782 2850 c0 -19 2 -27 5 -17 2 9 2 25 0 35 -3 9 -5 1 -5 -18z"/>
<path d="M3180 2810 l-25 -8 28 -1 c15 -1 27 4 27 9 0 6 -1 10 -2 9 -2 -1 -14
-5 -28 -9z"/>
<path d="M5535 2815 c-5 -1 -36 -8 -68 -15 -31 -6 -55 -15 -52 -20 3 -5 21 -2
40 6 19 8 45 14 59 14 14 0 28 5 31 10 3 6 5 10 3 9 -2 0 -7 -2 -13 -4z"/>
<path d="M3113 2799 c-18 -5 -33 -13 -33 -18 0 -4 16 -3 35 3 19 6 35 14 35
18 0 5 -1 8 -2 7 -2 0 -18 -5 -35 -10z"/>
<path d="M5588 2803 c7 -3 16 -2 19 1 4 3 -2 6 -13 5 -11 0 -14 -3 -6 -6z"/>
<path d="M322 2778 c-17 -17 -15 -31 8 -45 23 -15 36 0 14 17 -8 7 -13 19 -10
27 7 16 4 17 -12 1z"/>
<path d="M3010 2755 c14 -8 30 -14 35 -14 6 0 -1 6 -15 14 -14 8 -29 14 -35
14 -5 0 1 -6 15 -14z"/>
<path d="M5330 2760 c20 -13 33 -13 25 0 -3 6 -14 10 -23 10 -15 0 -15 -2 -2
-10z"/>
<path d="M3791 2694 c0 -11 3 -14 6 -6 3 7 2 16 -1 19 -3 4 -6 -2 -5 -13z"/>
<path d="M637 2644 c-3 -3 -39 -10 -79 -14 l-73 -9 77 4 c42 2 85 8 95 14 15
9 15 10 2 11 -9 0 -18 -3 -22 -6z"/>
<path d="M433 2633 c9 -2 25 -2 35 0 9 3 1 5 -18 5 -19 0 -27 -2 -17 -5z"/>
<path d="M341 2594 c0 -11 3 -14 6 -6 3 7 2 16 -1 19 -3 4 -6 -2 -5 -13z"/>
<path d="M3805 2548 c-4 -29 -5 -67 -2 -83 3 -25 4 -23 6 11 0 23 6 56 12 73
8 23 8 36 1 43 -7 7 -12 -6 -17 -44z"/>
<path d="M4175 2400 c3 -5 11 -10 16 -10 6 0 7 5 4 10 -3 6 -11 10 -16 10 -6
0 -7 -4 -4 -10z"/>
<path d="M4249 2371 c51 -25 75 -28 44 -6 -12 8 -37 18 -55 21 -31 5 -31 4 11
-15z"/>
<path d="M3755 2284 c-3 -21 -19 -48 -35 -63 -21 -19 -30 -39 -35 -76 -4 -27
-11 -57 -15 -65 -4 -8 -4 -26 1 -40 l7 -25 1 27 c2 54 32 144 61 185 17 23 30
48 30 55 0 8 5 19 12 26 9 9 8 12 -4 12 -10 0 -18 -13 -23 -36z"/>
<path d="M3326 2107 c-17 -22 -26 -46 -26 -70 0 -43 11 -46 58 -17 25 16 32
25 27 38 -4 9 -9 28 -10 41 -6 42 -21 45 -49 8z"/>
<path d="M2101 2074 c0 -11 3 -14 6 -6 3 7 2 16 -1 19 -3 4 -6 -2 -5 -13z"/>
<path d="M3655 1975 c-8 -21 -13 -40 -11 -43 3 -2 12 13 21 33 8 21 13 40 11
43 -3 2 -12 -13 -21 -33z"/>
<path d="M4021 1990 c0 -14 6 -34 14 -44 18 -24 18 -13 0 34 -12 31 -14 32
-14 10z"/>
<path d="M2435 1920 c3 -5 8 -10 11 -10 2 0 4 5 4 10 0 6 -5 10 -11 10 -5 0
-7 -4 -4 -10z"/>
<path d="M1091 1879 c-46 -9 -58 -15 -49 -25 4 -3 15 -1 26 5 11 6 51 15 89
20 55 7 59 9 23 9 -25 0 -65 -4 -89 -9z"/>
<path d="M4326 1854 c-9 -35 -2 -40 12 -9 6 13 7 27 3 30 -5 2 -12 -7 -15 -21z"/>
<path d="M957 1839 c7 -7 15 -10 18 -7 3 3 -2 9 -12 12 -14 6 -15 5 -6 -5z"/>
<path d="M3786 1780 c4 -14 7 -59 6 -100 -1 -41 1 -68 4 -60 15 41 32 65 64
87 19 14 26 22 15 18 -44 -17 -57 -11 -76 35 -11 25 -17 34 -13 20z"/>
<path d="M4252 1727 c-7 -19 -12 -56 -12 -83 0 -27 -11 -82 -25 -122 -29 -86
-31 -102 -10 -81 23 22 45 114 45 185 0 34 5 75 11 93 6 18 9 34 7 36 -2 3
-10 -10 -16 -28z"/>
<path d="M2930 1688 c0 -9 7 -19 16 -22 15 -6 15 -4 3 11 -7 10 -15 20 -16 22
-2 2 -3 -3 -3 -11z"/>
<path d="M3578 1606 c-24 -18 -23 -29 2 -21 12 4 27 1 35 -5 21 -18 18 4 -2
23 -15 13 -21 13 -35 3z"/>
<path d="M2005 1569 c-4 -6 -5 -12 -2 -15 2 -3 7 2 10 11 7 17 1 20 -8 4z"/>
<path d="M3640 1552 c0 -5 12 -14 26 -20 14 -7 23 -8 19 -2 -9 15 -45 32 -45
22z"/>
<path d="M4027 1539 c4 -13 8 -18 11 -10 2 7 -1 18 -6 23 -8 8 -9 4 -5 -13z"/>
<path d="M1976 1504 c-8 -21 -8 -21 8 -21 8 0 11 8 8 19 -5 22 -8 23 -16 2z"/>
<path d="M4039 1508 c-5 -18 -2 -145 4 -141 5 3 7 36 5 74 -2 58 -5 79 -9 67z"/>
<path d="M2025 1460 c10 -11 20 -20 23 -20 3 0 -3 9 -13 20 -10 11 -20 20 -23
20 -3 0 3 -9 13 -20z"/>
<path d="M3477 1439 c-12 -31 -13 -38 -3 -29 14 11 30 59 23 66 -2 2 -11 -14
-20 -37z"/>
<path d="M2070 1415 c0 -12 142 -115 159 -115 11 0 23 -5 26 -10 4 -6 11 -8
16 -5 5 4 9 1 9 -5 0 -6 5 -8 10 -5 6 3 13 0 16 -8 6 -17 61 -43 71 -34 14 15
-10 35 -69 57 -34 13 -71 24 -80 25 -9 1 -48 25 -87 53 -39 28 -71 50 -71 47z"/>
<path d="M5463 1408 c-24 -5 -43 -13 -43 -18 0 -5 13 -5 28 1 16 5 58 14 93
18 63 8 63 8 14 9 -27 0 -69 -4 -92 -10z"/>
<path d="M5340 1365 c14 -8 30 -14 35 -14 6 0 -1 6 -15 14 -14 8 -29 14 -35
14 -5 0 1 -6 15 -14z"/>
<path d="M5407 1339 c7 -7 15 -10 18 -7 3 3 -2 9 -12 12 -14 6 -15 5 -6 -5z"/>
<path d="M4223 1271 c-29 -31 -79 -73 -112 -93 -56 -35 -60 -36 -66 -18 -4 11
-14 20 -24 20 -20 0 -141 -112 -141 -131 0 -9 4 -8 15 1 9 7 47 12 105 11 l90
-1 -6 24 c-5 21 9 39 95 125 56 55 101 105 101 111 0 14 2 15 -57 -49z"/>
<path d="M5110 1281 c0 -6 4 -13 10 -16 6 -3 7 1 4 9 -7 18 -14 21 -14 7z"/>
<path d="M3400 1199 c0 -82 12 -156 26 -156 11 0 14 22 14 97 0 89 -1 96 -20
96 -16 0 -20 -7 -20 -37z m30 -40 c0 -5 -4 -9 -10 -9 -5 0 -10 7 -10 16 0 8 5
12 10 9 6 -3 10 -10 10 -16z"/>
<path d="M62 1150 c0 -14 2 -19 5 -12 2 6 2 18 0 25 -3 6 -5 1 -5 -13z"/>
<path d="M3511 1133 c-1 -24 14 -39 24 -23 3 5 2 10 -4 10 -5 0 -12 8 -14 18
-4 13 -5 12 -6 -5z"/>
<path d="M3417 1003 c2 -13 -1 -23 -6 -23 -16 0 -32 -37 -42 -102 -5 -33 -25
-90 -43 -127 -18 -36 -37 -80 -40 -98 -4 -18 -16 -42 -25 -55 -10 -13 -31 -57
-46 -98 -15 -41 -34 -93 -42 -115 -8 -22 -25 -51 -39 -66 -25 -26 -31 -49 -13
-49 6 0 30 16 53 35 24 19 46 32 49 28 4 -3 7 -1 7 5 0 6 20 43 45 81 101 156
199 389 196 469 -1 18 3 50 8 71 7 33 5 41 -12 56 -18 15 -19 15 -14 1 5 -11
1 -16 -13 -16 -10 0 -20 6 -23 13 -2 6 -2 2 0 -10z"/>
<path d="M3881 985 c0 -12 -6 -26 -13 -33 -6 -6 -9 -14 -6 -18 10 -9 30 35 25
54 -4 13 -5 13 -6 -3z"/>
<path d="M890 768 c0 -9 7 -19 16 -22 15 -6 15 -4 3 11 -7 10 -15 20 -16 22
-2 2 -3 -3 -3 -11z"/>
<path d="M1321 604 c0 -11 3 -14 6 -6 3 7 2 16 -1 19 -3 4 -6 -2 -5 -13z"/>
<path d="M5985 560 c-4 -17 -5 -34 -2 -36 2 -3 7 10 11 27 8 42 0 50 -9 9z"/>
<path d="M5940 539 c0 -5 5 -7 10 -4 6 3 10 8 10 11 0 2 -4 4 -10 4 -5 0 -10
-5 -10 -11z"/>
<path d="M5818 465 c11 -16 29 -38 40 -48 10 -10 27 -36 37 -57 21 -46 32 -49
13 -3 -7 16 -35 54 -62 84 -27 30 -40 41 -28 24z"/>
<path d="M3249 292 c5 -10 18 -25 27 -33 11 -9 9 -2 -6 19 -26 35 -36 42 -21
14z"/>
<path d="M5270 291 c5 -11 15 -23 21 -27 6 -3 3 5 -6 20 -20 30 -30 35 -15 7z"/>
<path d="M5921 267 c-1 -42 -6 -52 -44 -90 -24 -23 -47 -51 -50 -62 -5 -12 8
-4 30 21 44 48 79 69 88 54 3 -5 11 -10 17 -10 6 0 3 9 -8 21 -10 11 -21 41
-25 67 l-6 47 -2 -48z"/>
<path d="M5970 166 c0 -2 7 -9 15 -16 9 -7 15 -8 15 -2 0 5 -7 12 -15 16 -8 3
-15 4 -15 2z"/>
<path d="M2150 143 c0 -5 10 -18 23 -29 l22 -19 -20 25 c-11 14 -21 27 -22 29
-2 2 -3 0 -3 -6z"/>
<path d="M5813 43 c-7 -15 -11 -28 -9 -31 6 -6 28 38 24 48 -2 5 -9 -3 -15
-17z"/>
</g>
</svg>
